<mxfile host="app.diagrams.net" modified="2024-01-22T03:36:23.573Z" agent="Mozilla/5.0 (Windows NT 10.0; Win64; x64) AppleWebKit/537.36 (KHTML, like Gecko) Chrome/120.0.0.0 Safari/537.36" etag="A5oDFZ_xtBSmEdOjOqrA" version="22.1.21" type="github">
  <diagram name="หน้า-1" id="nbXUcrdM-XwJvHEKahno">
    <mxGraphModel dx="662" dy="387" grid="1" gridSize="10" guides="1" tooltips="1" connect="1" arrows="1" fold="1" page="1" pageScale="1" pageWidth="827" pageHeight="1169" math="0" shadow="0">
      <root>
        <mxCell id="0" />
        <mxCell id="1" parent="0" />
        <mxCell id="VO47c2otUsLpDvjMp0nM-18" style="edgeStyle=orthogonalEdgeStyle;rounded=0;orthogonalLoop=1;jettySize=auto;html=1;dashed=1;endArrow=none;endFill=0;" edge="1" parent="1" source="VO47c2otUsLpDvjMp0nM-1">
          <mxGeometry relative="1" as="geometry">
            <mxPoint x="145" y="420" as="targetPoint" />
          </mxGeometry>
        </mxCell>
        <mxCell id="VO47c2otUsLpDvjMp0nM-1" value="Caller" style="shape=umlActor;verticalLabelPosition=bottom;verticalAlign=top;html=1;outlineConnect=0;" vertex="1" parent="1">
          <mxGeometry x="130" y="50" width="30" height="60" as="geometry" />
        </mxCell>
        <mxCell id="VO47c2otUsLpDvjMp0nM-2" value=":Rooms" style="shape=umlLifeline;perimeter=lifelinePerimeter;whiteSpace=wrap;html=1;container=1;dropTarget=0;collapsible=0;recursiveResize=0;outlineConnect=0;portConstraint=eastwest;newEdgeStyle={&quot;curved&quot;:0,&quot;rounded&quot;:0};" vertex="1" parent="1">
          <mxGeometry x="313.5" y="90" width="100" height="330" as="geometry" />
        </mxCell>
        <mxCell id="VO47c2otUsLpDvjMp0nM-11" value="" style="html=1;points=[[0,0,0,0,5],[0,1,0,0,-5],[1,0,0,0,5],[1,1,0,0,-5]];perimeter=orthogonalPerimeter;outlineConnect=0;targetShapes=umlLifeline;portConstraint=eastwest;newEdgeStyle={&quot;curved&quot;:0,&quot;rounded&quot;:0};" vertex="1" parent="VO47c2otUsLpDvjMp0nM-2">
          <mxGeometry x="45" y="70" width="10" height="40" as="geometry" />
        </mxCell>
        <mxCell id="VO47c2otUsLpDvjMp0nM-28" value="" style="html=1;points=[[0,0,0,0,5],[0,1,0,0,-5],[1,0,0,0,5],[1,1,0,0,-5]];perimeter=orthogonalPerimeter;outlineConnect=0;targetShapes=umlLifeline;portConstraint=eastwest;newEdgeStyle={&quot;curved&quot;:0,&quot;rounded&quot;:0};" vertex="1" parent="VO47c2otUsLpDvjMp0nM-2">
          <mxGeometry x="45" y="170" width="10" height="90" as="geometry" />
        </mxCell>
        <mxCell id="VO47c2otUsLpDvjMp0nM-19" style="edgeStyle=orthogonalEdgeStyle;rounded=0;orthogonalLoop=1;jettySize=auto;html=1;startArrow=none;startFill=0;dashed=1;" edge="1" parent="1" source="VO47c2otUsLpDvjMp0nM-3">
          <mxGeometry relative="1" as="geometry">
            <mxPoint x="585" y="420" as="targetPoint" />
          </mxGeometry>
        </mxCell>
        <mxCell id="VO47c2otUsLpDvjMp0nM-3" value="Callee" style="shape=umlActor;verticalLabelPosition=bottom;verticalAlign=top;html=1;outlineConnect=0;" vertex="1" parent="1">
          <mxGeometry x="570" y="50" width="30" height="60" as="geometry" />
        </mxCell>
        <mxCell id="VO47c2otUsLpDvjMp0nM-24" style="edgeStyle=orthogonalEdgeStyle;rounded=0;orthogonalLoop=1;jettySize=auto;html=1;curved=0;" edge="1" parent="1" source="VO47c2otUsLpDvjMp0nM-7" target="VO47c2otUsLpDvjMp0nM-22">
          <mxGeometry relative="1" as="geometry">
            <Array as="points">
              <mxPoint x="370" y="220" />
              <mxPoint x="370" y="220" />
            </Array>
          </mxGeometry>
        </mxCell>
        <mxCell id="VO47c2otUsLpDvjMp0nM-25" value="send SMS request to joint room &amp;lt;room id&amp;gt;" style="edgeLabel;html=1;align=center;verticalAlign=middle;resizable=0;points=[];" vertex="1" connectable="0" parent="VO47c2otUsLpDvjMp0nM-24">
          <mxGeometry x="-0.1359" y="-2" relative="1" as="geometry">
            <mxPoint x="24" as="offset" />
          </mxGeometry>
        </mxCell>
        <mxCell id="VO47c2otUsLpDvjMp0nM-34" value="connected stream" style="edgeStyle=orthogonalEdgeStyle;rounded=0;orthogonalLoop=1;jettySize=auto;html=1;curved=0;startArrow=classic;startFill=1;" edge="1" parent="1" source="VO47c2otUsLpDvjMp0nM-7" target="VO47c2otUsLpDvjMp0nM-22">
          <mxGeometry relative="1" as="geometry">
            <Array as="points">
              <mxPoint x="430" y="370" />
              <mxPoint x="430" y="370" />
            </Array>
          </mxGeometry>
        </mxCell>
        <mxCell id="VO47c2otUsLpDvjMp0nM-36" value="get callee candidates &amp;lt;room id&amp;gt;" style="edgeStyle=orthogonalEdgeStyle;rounded=0;orthogonalLoop=1;jettySize=auto;html=1;curved=0;" edge="1" parent="1" source="VO47c2otUsLpDvjMp0nM-7" target="VO47c2otUsLpDvjMp0nM-28">
          <mxGeometry relative="1" as="geometry">
            <Array as="points">
              <mxPoint x="250" y="330" />
              <mxPoint x="250" y="330" />
            </Array>
          </mxGeometry>
        </mxCell>
        <mxCell id="VO47c2otUsLpDvjMp0nM-7" value="" style="html=1;points=[[0,0,0,0,5],[0,1,0,0,-5],[1,0,0,0,5],[1,1,0,0,-5]];perimeter=orthogonalPerimeter;outlineConnect=0;targetShapes=umlLifeline;portConstraint=eastwest;newEdgeStyle={&quot;curved&quot;:0,&quot;rounded&quot;:0};" vertex="1" parent="1">
          <mxGeometry x="140" y="150" width="10" height="230" as="geometry" />
        </mxCell>
        <mxCell id="VO47c2otUsLpDvjMp0nM-12" value="new room &amp;lt;caller id&amp;gt;" style="edgeStyle=orthogonalEdgeStyle;rounded=0;orthogonalLoop=1;jettySize=auto;html=1;curved=0;entryX=0;entryY=0;entryDx=0;entryDy=5;entryPerimeter=0;" edge="1" parent="1" source="VO47c2otUsLpDvjMp0nM-7" target="VO47c2otUsLpDvjMp0nM-11">
          <mxGeometry relative="1" as="geometry">
            <Array as="points">
              <mxPoint x="210" y="165" />
              <mxPoint x="210" y="165" />
            </Array>
          </mxGeometry>
        </mxCell>
        <mxCell id="VO47c2otUsLpDvjMp0nM-13" value="&amp;lt;room id&amp;gt;" style="edgeStyle=orthogonalEdgeStyle;rounded=0;orthogonalLoop=1;jettySize=auto;html=1;curved=0;dashed=1;" edge="1" parent="1" source="VO47c2otUsLpDvjMp0nM-11" target="VO47c2otUsLpDvjMp0nM-7">
          <mxGeometry relative="1" as="geometry">
            <Array as="points">
              <mxPoint x="210" y="190" />
              <mxPoint x="210" y="190" />
            </Array>
          </mxGeometry>
        </mxCell>
        <mxCell id="VO47c2otUsLpDvjMp0nM-29" value="join room &amp;lt;room id&amp;gt; &amp;lt;callee id&amp;gt;" style="edgeStyle=orthogonalEdgeStyle;rounded=0;orthogonalLoop=1;jettySize=auto;html=1;curved=0;" edge="1" parent="1" source="VO47c2otUsLpDvjMp0nM-22" target="VO47c2otUsLpDvjMp0nM-28">
          <mxGeometry relative="1" as="geometry">
            <Array as="points">
              <mxPoint x="430" y="270" />
              <mxPoint x="430" y="270" />
            </Array>
          </mxGeometry>
        </mxCell>
        <mxCell id="VO47c2otUsLpDvjMp0nM-22" value="" style="html=1;points=[[0,0,0,0,5],[0,1,0,0,-5],[1,0,0,0,5],[1,1,0,0,-5]];perimeter=orthogonalPerimeter;outlineConnect=0;targetShapes=umlLifeline;portConstraint=eastwest;newEdgeStyle={&quot;curved&quot;:0,&quot;rounded&quot;:0};" vertex="1" parent="1">
          <mxGeometry x="580" y="210" width="10" height="170" as="geometry" />
        </mxCell>
        <mxCell id="VO47c2otUsLpDvjMp0nM-26" value="waiting" style="edgeStyle=orthogonalEdgeStyle;rounded=0;orthogonalLoop=1;jettySize=auto;html=1;curved=0;" edge="1" parent="1" source="VO47c2otUsLpDvjMp0nM-7" target="VO47c2otUsLpDvjMp0nM-7">
          <mxGeometry relative="1" as="geometry">
            <Array as="points">
              <mxPoint x="210" y="230" />
              <mxPoint x="210" y="260" />
            </Array>
          </mxGeometry>
        </mxCell>
        <mxCell id="VO47c2otUsLpDvjMp0nM-32" value="answer &amp;lt;callee id&amp;gt;" style="html=1;verticalAlign=bottom;startArrow=oval;startFill=1;endArrow=block;startSize=8;curved=0;rounded=0;" edge="1" parent="1" target="VO47c2otUsLpDvjMp0nM-7">
          <mxGeometry width="60" relative="1" as="geometry">
            <mxPoint x="358.5" y="309.58" as="sourcePoint" />
            <mxPoint x="149.9999999999999" y="309.58" as="targetPoint" />
            <Array as="points">
              <mxPoint x="280" y="309.58" />
            </Array>
          </mxGeometry>
        </mxCell>
        <mxCell id="VO47c2otUsLpDvjMp0nM-33" value="caller candidates" style="edgeStyle=orthogonalEdgeStyle;rounded=0;orthogonalLoop=1;jettySize=auto;html=1;curved=0;dashed=1;" edge="1" parent="1" source="VO47c2otUsLpDvjMp0nM-28" target="VO47c2otUsLpDvjMp0nM-22">
          <mxGeometry relative="1" as="geometry">
            <Array as="points">
              <mxPoint x="430" y="290" />
              <mxPoint x="430" y="290" />
            </Array>
          </mxGeometry>
        </mxCell>
      </root>
    </mxGraphModel>
  </diagram>
</mxfile>
